<?xml version="1.0" encoding="UTF-8"?>
      <mxfile host="codeviz.app" modified="2025-08-06T20:06:47.219Z" agent="CodeViz Exporter" version="14.6.5" type="device">
        <diagram id="codeviz-diagram" name="System Diagram">
          <mxGraphModel dx="1000" dy="1000" grid="1" gridSize="10" guides="1" tooltips="1" connect="1" arrows="1" fold="1" page="1" pageScale="1" pageWidth="1169" pageHeight="827" math="0" shadow="0">
            <root>
              <mxCell id="0"/>
              <mxCell id="1" parent="0"/>
              <mxCell id="1" value="" style="html=1;whiteSpace=wrap;container=1;fillColor=#dae8fc;strokeColor=#6c8ebf;dashed=1;fillOpacity=20;strokeWidth=2;containerType=none;recursiveResize=0;movable=1;resizable=1;autosize=0;dropTarget=0" vertex="1" parent="1">
                <mxGeometry x="22" y="22" width="840" height="220" as="geometry"/>
              </mxCell>
              <mxCell id="1_label" value="Build and Development Environment&lt;br&gt;Vite, npm, TypeScript, ESLint, PostCSS, Tailwind" style="edgeLabel;html=1;align=center;verticalAlign=middle;resizable=0;labelBackgroundColor=white;spacing=5" vertex="1" parent="1">
                <mxGeometry x="30" y="30" width="764" height="24" as="geometry"/>
              </mxCell>
<mxCell id="2" value="" style="html=1;whiteSpace=wrap;container=1;fillColor=#dae8fc;strokeColor=#6c8ebf;dashed=1;fillOpacity=20;strokeWidth=2;containerType=none;recursiveResize=0;movable=1;resizable=1;autosize=0;dropTarget=0" vertex="1" parent="1">
                <mxGeometry x="1012" y="392" width="180" height="120" as="geometry"/>
              </mxCell>
              <mxCell id="2_label" value="Frontend System&lt;br&gt;React, TypeScript, Vite" style="edgeLabel;html=1;align=center;verticalAlign=middle;resizable=0;labelBackgroundColor=white;spacing=5" vertex="1" parent="1">
                <mxGeometry x="1020" y="400" width="104" height="24" as="geometry"/>
              </mxCell>
<mxCell id="19" value="" style="html=1;whiteSpace=wrap;container=1;fillColor=#dae8fc;strokeColor=#6c8ebf;dashed=1;fillOpacity=20;strokeWidth=2;containerType=none;recursiveResize=0;movable=1;resizable=1;autosize=0;dropTarget=0" vertex="1" parent="1">
                <mxGeometry x="1172" y="72" width="180" height="120" as="geometry"/>
              </mxCell>
              <mxCell id="19_label" value="New Group" style="edgeLabel;html=1;align=center;verticalAlign=middle;resizable=0;labelBackgroundColor=white;spacing=5" vertex="1" parent="1">
                <mxGeometry x="1180" y="80" width="104" height="24" as="geometry"/>
              </mxCell>
              <mxCell id="18" value="New Node" style="rounded=1;whiteSpace=wrap;html=1;fillColor=#f5f5f5" vertex="1" parent="1">
                    <mxGeometry x="852" y="72" width="120" height="60" as="geometry"/>
                  </mxCell>
<mxCell id="4" value="User&lt;br&gt;External Actor" style="rounded=1;whiteSpace=wrap;html=1;fillColor=#f5f5f5" vertex="1" parent="1">
                    <mxGeometry x="1012" y="132" width="120" height="60" as="geometry"/>
                  </mxCell>
<mxCell id="13" value="Project Configuration&lt;br&gt;npm" style="rounded=1;whiteSpace=wrap;html=1;fillColor=#f5f5f5" vertex="1" parent="1">
                    <mxGeometry x="190" y="120" width="120" height="60" as="geometry"/>
                  </mxCell>
<mxCell id="14" value="Build Tool Configuration&lt;br&gt;Vite" style="rounded=1;whiteSpace=wrap;html=1;fillColor=#f5f5f5" vertex="1" parent="1">
                    <mxGeometry x="340" y="120" width="120" height="60" as="geometry"/>
                  </mxCell>
<mxCell id="15" value="TypeScript Configuration&lt;br&gt;TypeScript" style="rounded=1;whiteSpace=wrap;html=1;fillColor=#f5f5f5" vertex="1" parent="1">
                    <mxGeometry x="40" y="120" width="120" height="60" as="geometry"/>
                  </mxCell>
<mxCell id="16" value="Styling Configuration&lt;br&gt;PostCSS, Tailwind CSS" style="rounded=1;whiteSpace=wrap;html=1;fillColor=#f5f5f5" vertex="1" parent="1">
                    <mxGeometry x="490" y="120" width="120" height="60" as="geometry"/>
                  </mxCell>
<mxCell id="17" value="Linting Configuration&lt;br&gt;ESLint" style="rounded=1;whiteSpace=wrap;html=1;fillColor=#f5f5f5" vertex="1" parent="1">
                    <mxGeometry x="640" y="120" width="120" height="60" as="geometry"/>
                  </mxCell>
              <mxCell id="edge-14" style="edgeStyle=orthogonalEdgeStyle;rounded=1;orthogonalLoop=1;jettySize=auto;html=1;strokeColor=#808080;strokeWidth=2;jumpStyle=arc;jumpSize=10;spacing=15;labelBackgroundColor=white;labelBorderColor=none" edge="1" parent="1" source="4" target="2">
                  <mxGeometry relative="1" as="geometry"/>
                </mxCell>
                <mxCell id="edge-14_label" value="interacts with" style="edgeLabel;html=1;align=center;verticalAlign=middle;resizable=0;points=[];" vertex="1" connectable="0" parent="edge-14">
                  <mxGeometry x="-0.2" y="10" relative="1" as="geometry">
                    <mxPoint as="offset"/>
                  </mxGeometry>
                </mxCell>
            </root>
          </mxGraphModel>
        </diagram>
      </mxfile>